<mxfile host="app.diagrams.net" modified="2023-09-26T01:05:31.652Z" agent="Mozilla/5.0 (Windows NT 10.0; Win64; x64) AppleWebKit/537.36 (KHTML, like Gecko) Chrome/116.0.0.0 Safari/537.36" version="21.8.0" etag="0QpxH2bXC0Sx9NmXLNuI" type="github">
  <diagram name="第 1 页" id="m4n6hDYsiDirdl6bRJB4">
    <mxGraphModel>
      <root>
        <mxCell id="0" />
        <mxCell id="1" parent="0" />
      </root>
    </mxGraphModel>
  </diagram>
</mxfile>
